<?xml version="1.0" encoding="utf-8"?>
<!-- Generator: Adobe Illustrator 23.0.5, SVG Export Plug-In . SVG Version: 6.00 Build 0)  -->
<svg version="1.1" id="Layer_1" xmlns="http://www.w3.org/2000/svg" xmlns:xlink="http://www.w3.org/1999/xlink" x="0px" y="0px"
	 viewBox="0 0 1080 1080" style="enable-background:new 0 0 1080 1080;" xml:space="preserve">
<style type="text/css">
	.st0{fill:#FFBF00;}
	.st1{fill:url(#SVGID_1_);}
	.st2{fill:url(#SVGID_2_);stroke:#000000;stroke-width:5;stroke-miterlimit:10;}
	.st3{fill:url(#SVGID_3_);stroke:#000000;stroke-width:5;stroke-miterlimit:10;}
	.st4{fill:url(#SVGID_4_);stroke:#000000;stroke-miterlimit:10;}
	.st5{fill:url(#SVGID_5_);}
	.st6{fill:url(#SVGID_6_);stroke:#000000;stroke-width:5;stroke-miterlimit:10;}
	.st7{fill:#FFBF00;stroke:#000000;stroke-width:5;stroke-miterlimit:10;}
	.st8{fill:url(#SVGID_7_);stroke:#000000;stroke-width:5;stroke-miterlimit:10;}
	.st9{stroke:#000000;stroke-miterlimit:10;}
	.st10{fill:none;}
	.st11{font-family:'JavaneseText';}
	.st12{font-size:150px;}
</style>
<rect width="1080" height="793"/>
<rect y="793" class="st0" width="1080" height="287"/>
<g>
	<linearGradient id="SVGID_1_" gradientUnits="userSpaceOnUse" x1="539.6161" y1="368.1344" x2="678.7908" y2="368.1344">
		<stop  offset="3.081102e-07" style="stop-color:#FFFFFF"/>
		<stop  offset="1" style="stop-color:#BF9D00"/>
	</linearGradient>
	<polygon class="st1" points="539.62,408.18 539.62,249.31 678.79,328.09 678.79,486.96 	"/>
	<linearGradient id="SVGID_2_" gradientUnits="userSpaceOnUse" x1="263.0437" y1="227.5911" x2="540.0801" y2="227.5911">
		<stop  offset="0" style="stop-color:#FFFFFF"/>
		<stop  offset="1" style="stop-color:#FFBF00"/>
	</linearGradient>
	<polygon class="st2" points="263.04,228.9 402.22,147.5 540.08,228.9 402.22,307.68 	"/>
	<linearGradient id="SVGID_3_" gradientUnits="userSpaceOnUse" x1="263.0437" y1="347.7278" x2="402.2184" y2="347.7278">
		<stop  offset="0" style="stop-color:#FFFFFF"/>
		<stop  offset="1" style="stop-color:#FFBF00"/>
	</linearGradient>
	<polygon class="st3" points="263.04,387.77 263.04,228.9 402.22,307.68 402.22,466.55 	"/>
	<linearGradient id="SVGID_4_" gradientUnits="userSpaceOnUse" x1="402.2184" y1="368.1344" x2="540.0801" y2="368.1344">
		<stop  offset="3.081102e-07" style="stop-color:#FFFFFF"/>
		<stop  offset="1" style="stop-color:#BF9D00"/>
	</linearGradient>
	<polygon class="st4" points="540.08,408.84 540.08,249.31 402.22,328.09 402.22,486.96 	"/>
	<linearGradient id="SVGID_5_" gradientUnits="userSpaceOnUse" x1="401.3299" y1="487.4463" x2="678.3663" y2="487.4463">
		<stop  offset="0" style="stop-color:#BF9D00"/>
		<stop  offset="1" style="stop-color:#FFFFFF"/>
	</linearGradient>
	<polygon class="st5" points="401.33,488.76 540.5,407.36 678.37,488.76 540.5,567.54 	"/>
	<linearGradient id="SVGID_6_" gradientUnits="userSpaceOnUse" x1="401.3299" y1="587.1763" x2="540.5046" y2="587.1763">
		<stop  offset="0" style="stop-color:#FFFFFF"/>
		<stop  offset="1" style="stop-color:#FFBF00"/>
	</linearGradient>
	<polygon class="st6" points="401.33,627.22 401.33,468.35 540.5,547.13 540.5,706 	"/>
	<polygon class="st7" points="678.37,627.88 678.37,468.35 540.5,547.13 540.5,706 	"/>
	<linearGradient id="SVGID_7_" gradientUnits="userSpaceOnUse" x1="539.6161" y1="227.5911" x2="816.6525" y2="227.5911">
		<stop  offset="0" style="stop-color:#FFFFFF"/>
		<stop  offset="1" style="stop-color:#FFBF00"/>
	</linearGradient>
	<polygon class="st8" points="539.62,228.9 678.79,147.5 816.65,228.9 678.79,307.68 	"/>
	<polygon class="st7" points="816.65,388.43 816.65,228.9 678.79,307.68 678.79,466.55 	"/>
	<g>
		<polygon class="st9" points="401.33,308.72 540.5,227.32 678.37,308.72 540.5,387.5 		"/>
		<polygon class="st9" points="401.33,467.59 401.33,308.72 540.5,387.5 540.5,546.37 		"/>
		<polygon class="st9" points="678.37,468.25 678.37,308.72 540.5,387.5 540.5,546.37 		"/>
	</g>
</g>
<rect x="95.7" y="843.02" class="st10" width="877.79" height="134.79"/>
<text transform="matrix(1 0 0 1 234.224 949.3697)" class="st11 st12">SuccessR</text>
<g>
	<g>
		<path d="M332.39,1036.44v-12.63c0-0.29-0.1-0.62-0.19-0.77l-12-20.21h3.02c3.36,5.71,9.22,15.65,10.66,18.15
			c1.44-2.5,7.34-12.34,10.94-18.15h2.88l-12.53,20.4c-0.1,0.19-0.14,0.38-0.14,0.72v12.48H332.39z"/>
		<path d="M371.04,1024.39c0,6.67-3.7,12.63-10.85,12.63c-6.48,0-10.51-5.33-10.51-12.58c0-6.86,3.79-12.58,10.75-12.58
			C366.81,1011.86,371.04,1016.85,371.04,1024.39z M352.22,1024.44c0,5.71,3.07,10.32,8.16,10.32c5.18,0,8.11-4.27,8.11-10.32
			c0-5.67-2.88-10.32-8.21-10.32C354.81,1014.12,352.22,1018.68,352.22,1024.44z"/>
		<path d="M394.94,1029.43c0,2.35,0.05,6.1,0.05,7.01h-2.3c-0.1-0.62-0.14-2.21-0.14-4.18c-1.01,2.83-3.46,4.75-7.73,4.75
			c-3.46,0-7.87-1.34-7.87-8.69v-15.89h2.35v15.31c0,3.5,1.1,6.91,5.86,6.91c5.38,0,7.39-3.02,7.39-9.89v-12.34h2.4V1029.43z"/>
		<path d="M402.81,1018.97c0-4.03-0.05-5.76-0.05-6.53h2.35c0.05,0.77,0.1,2.3,0.1,5.38c1.39-3.6,4.46-5.76,8.35-5.95v2.59
			c-4.99,0.34-8.35,3.79-8.35,9.5v12.48h-2.4V1018.97z"/>
		<path d="M437.46,1036.44l-9.31-33.6h2.69c2.26,8.06,7.34,26.64,8.11,30.58H439c0.62-3.12,6.14-21.7,8.5-30.58h2.88
			c2.21,8.21,7.58,27.94,8.11,30.53h0.05c1.06-4.75,6.67-22.51,8.98-30.53h2.64l-10.27,33.6h-2.98c-2.21-7.92-7.44-27.36-8.02-30.24
			h-0.05c-0.86,4.37-6.05,21.89-8.45,30.24H437.46z"/>
		<path d="M491.7,1031.88c0,2.11,0.19,3.79,0.34,4.56h-2.3c-0.19-0.58-0.34-1.63-0.43-3.7c-0.82,1.78-2.93,4.27-7.87,4.27
			c-5.57,0-7.97-3.6-7.97-7.2c0-5.28,4.08-7.68,11.28-7.68c2.02,0,3.6,0,4.56,0v-2.45c0-2.4-0.72-5.62-6.19-5.62
			c-4.85,0-5.57,2.54-6.1,4.51h-2.4c0.29-2.64,1.92-6.72,8.54-6.72c5.47,0,8.54,2.3,8.54,7.58V1031.88z M489.35,1024.2
			c-0.91,0-3.12,0-4.7,0c-5.33,0-8.64,1.39-8.64,5.52c0,3.02,2.16,5.09,5.52,5.09c6.86,0,7.82-4.56,7.82-9.75V1024.2z"/>
		<path d="M499,1012.44c4.85,13.73,6.96,19.39,7.78,21.99h0.05c0.96-2.93,2.88-8.5,7.54-21.99h2.5l-9.02,25.39
			c-2.54,7.1-4.27,8.69-8.59,8.69c-0.86,0-1.44-0.05-2.21-0.14v-2.4c0.72,0.1,1.39,0.14,2.16,0.14c3.46,0,4.56-1.68,6.34-6.63
			l-9.17-25.06H499z"/>
		<path d="M530.34,1012.44h4.46v-7.49h2.4v7.49h5.71v2.26h-5.71v15.6c0,2.69,0.58,4.22,2.88,4.22c0.72,0,1.73-0.05,2.5-0.29v2.11
			c-0.82,0.34-1.97,0.43-2.98,0.43c-3.07,0-4.8-1.54-4.8-5.38v-16.71h-4.46V1012.44z"/>
		<path d="M567.25,1024.39c0,6.67-3.7,12.63-10.85,12.63c-6.48,0-10.51-5.33-10.51-12.58c0-6.86,3.79-12.58,10.75-12.58
			C563.03,1011.86,567.25,1016.85,567.25,1024.39z M548.44,1024.44c0,5.71,3.07,10.32,8.16,10.32c5.18,0,8.11-4.27,8.11-10.32
			c0-5.67-2.88-10.32-8.21-10.32C551.03,1014.12,548.44,1018.68,548.44,1024.44z"/>
		<path d="M586.69,1027.42c1.01,4.46,3.98,7.1,9.5,7.1c6.14,0,8.5-3.07,8.5-6.72c0-3.79-1.68-6.14-9.07-7.97
			c-7.1-1.78-10.18-4.08-10.18-8.93c0-4.42,3.22-8.54,10.42-8.54c7.39,0,10.51,4.51,10.95,8.59h-2.69c-0.77-3.6-3.12-6.19-8.4-6.19
			c-4.85,0-7.49,2.26-7.49,6c0,3.7,2.21,5.14,8.4,6.67c9.46,2.35,10.85,6.14,10.85,10.18c0,4.94-3.6,9.22-11.38,9.22
			c-8.4,0-11.47-4.9-12.1-9.41H586.69z"/>
		<path d="M631.81,1029.43c0,2.35,0.05,6.1,0.05,7.01h-2.3c-0.1-0.62-0.14-2.21-0.14-4.18c-1.01,2.83-3.46,4.75-7.73,4.75
			c-3.46,0-7.87-1.34-7.87-8.69v-15.89h2.35v15.31c0,3.5,1.1,6.91,5.86,6.91c5.38,0,7.39-3.02,7.39-9.89v-12.34h2.4V1029.43z"/>
		<path d="M657.35,1029.38c-1.15,4.22-3.94,7.63-9.31,7.63c-6,0-10.27-4.46-10.27-12.48c0-6.58,3.5-12.67,10.56-12.67
			c6.1,0,8.59,4.32,9.02,7.68h-2.45c-0.72-2.78-2.54-5.42-6.62-5.42c-5.09,0-7.97,4.32-7.97,10.32c0,5.71,2.69,10.32,7.73,10.32
			c3.5,0,5.62-1.78,6.86-5.38H657.35z"/>
		<path d="M680.58,1029.38c-1.15,4.22-3.94,7.63-9.31,7.63c-6,0-10.27-4.46-10.27-12.48c0-6.58,3.5-12.67,10.56-12.67
			c6.1,0,8.59,4.32,9.02,7.68h-2.45c-0.72-2.78-2.54-5.42-6.62-5.42c-5.09,0-7.97,4.32-7.97,10.32c0,5.71,2.69,10.32,7.73,10.32
			c3.5,0,5.62-1.78,6.86-5.38H680.58z"/>
		<path d="M686.68,1024.73c0.05,6.19,3.17,10.03,7.78,10.03c4.51,0,6.05-2.54,6.91-4.51h2.45c-1.01,3.17-3.55,6.77-9.46,6.77
			c-7.3,0-10.13-6.29-10.13-12.38c0-6.87,3.41-12.77,10.42-12.77c7.39,0,9.75,6.38,9.75,10.9c0,0.67,0,1.34-0.05,1.97H686.68z
			 M701.89,1022.61c-0.05-4.75-2.64-8.5-7.34-8.5c-4.94,0-7.2,3.46-7.73,8.5H701.89z"/>
		<path d="M710.24,1029.81c0.82,3.12,3.02,4.99,6.82,4.99c4.27,0,6-1.97,6-4.66c0-2.74-1.15-4.08-6.53-5.38
			c-6.19-1.49-7.73-3.36-7.73-6.53c0-3.31,2.5-6.38,7.92-6.38s8.02,3.31,8.4,6.72h-2.4c-0.43-2.02-2.02-4.51-6.1-4.51
			c-4.18,0-5.38,2.06-5.38,3.98c0,2.21,1.15,3.31,5.9,4.46c6.77,1.63,8.45,3.84,8.45,7.44c0,4.37-3.55,7.06-8.59,7.06
			c-5.47,0-8.54-2.88-9.22-7.2H710.24z"/>
		<path d="M731.55,1029.81c0.82,3.12,3.02,4.99,6.82,4.99c4.27,0,6-1.97,6-4.66c0-2.74-1.15-4.08-6.53-5.38
			c-6.19-1.49-7.73-3.36-7.73-6.53c0-3.31,2.5-6.38,7.92-6.38s8.02,3.31,8.4,6.72h-2.4c-0.43-2.02-2.02-4.51-6.1-4.51
			c-4.18,0-5.38,2.06-5.38,3.98c0,2.21,1.15,3.31,5.9,4.46c6.77,1.63,8.45,3.84,8.45,7.44c0,4.37-3.55,7.06-8.59,7.06
			c-5.47,0-8.54-2.88-9.22-7.2H731.55z"/>
	</g>
</g>
</svg>
